<svg xmlns="http://www.w3.org/2000/svg" width="1200" height="420" viewBox="0 0 1200 420" role="img" aria-labelledby="stats-title stats-desc">
      <title id="stats-title">GitHub Analytics Grid</title><desc id="stats-desc">Live GitHub activity summary for HitDrama</desc>
      <defs>
        <linearGradient id="ag-stage" x1="0" y1="0" x2="0" y2="1"><stop stop-color="#0a0f1f"/><stop offset="1" stop-color="#070a16"/></linearGradient>
        <linearGradient id="ag-card" x1="0" y1="0" x2="0" y2="1"><stop stop-color="#15192e"/><stop offset="1" stop-color="#0e1224"/></linearGradient>
        <linearGradient id="ag-green" x1="0" y1="0" x2="0" y2="1"><stop stop-color="#4ade80" stop-opacity=".5"/><stop offset="1" stop-color="#4ade80" stop-opacity="0"/></linearGradient>
        <linearGradient id="ag-violet" x1="0" y1="0" x2="0" y2="1"><stop stop-color="#a78bfa" stop-opacity=".5"/><stop offset="1" stop-color="#a78bfa" stop-opacity="0"/></linearGradient>
      </defs>
      <rect width="1200" height="420" fill="url(#ag-stage)"/>
      <g font-family="JetBrains Mono,monospace" font-size="10" letter-spacing="4"><circle cx="66" cy="49" r="3.5" fill="#4ade80"/><text x="80" y="52" fill="#4ade80">LIVE · GITHUB API</text><text x="1140" y="52" text-anchor="end" fill="#64748b">PROFILE · HITDRAMA</text></g>
      <text x="60" y="100" font-family="Inter,system-ui,sans-serif" font-size="28" font-weight="700" fill="#e2e8f0">Today, in numbers.</text>
      <text x="60" y="124" font-family="JetBrains Mono,monospace" font-size="11" fill="#64748b" letter-spacing="2">HITDRAMA · COMMITS · STREAK · PULL REQUESTS · CADENCE</text><g transform="translate(60,148)"><rect width="262" height="128" rx="12" fill="url(#ag-card)" stroke="#1f2540" stroke-width=".7"/><text x="18" y="32" font-family="JetBrains Mono,monospace" font-size="9" fill="#64748b" letter-spacing="3">COMMITS · THIS YEAR</text><text x="18" y="74" font-family="Inter,system-ui,sans-serif" font-size="34" font-weight="700" fill="#e2e8f0">36</text><text x="18" y="94" font-family="JetBrains Mono,monospace" font-size="10" fill="#4ade80">contribution commits</text><rect x="18" y="112" width="226" height="3" rx="1.5" fill="#4ade80" opacity=".8"/></g><g transform="translate(338,148)"><rect width="262" height="128" rx="12" fill="url(#ag-card)" stroke="#1f2540" stroke-width=".7"/><text x="18" y="32" font-family="JetBrains Mono,monospace" font-size="9" fill="#64748b" letter-spacing="3">STREAK · CURRENT</text><text x="18" y="74" font-family="Inter,system-ui,sans-serif" font-size="34" font-weight="700" fill="#e2e8f0">1d</text><text x="18" y="94" font-family="JetBrains Mono,monospace" font-size="10" fill="#a78bfa">→ longest 19d</text><rect x="18" y="112" width="226" height="3" rx="1.5" fill="#a78bfa" opacity=".8"/></g><g transform="translate(616,148)"><rect width="262" height="128" rx="12" fill="url(#ag-card)" stroke="#1f2540" stroke-width=".7"/><text x="18" y="32" font-family="JetBrains Mono,monospace" font-size="9" fill="#64748b" letter-spacing="3">PULL REQUESTS · THIS YEAR</text><text x="18" y="74" font-family="Inter,system-ui,sans-serif" font-size="34" font-weight="700" fill="#e2e8f0">2</text><text x="18" y="94" font-family="JetBrains Mono,monospace" font-size="10" fill="#fcd34d">contribution pull requests</text><rect x="18" y="112" width="226" height="3" rx="1.5" fill="#fcd34d" opacity=".8"/></g><g transform="translate(894,148)"><rect width="246" height="128" rx="12" fill="url(#ag-card)" stroke="#1f2540" stroke-width=".7"/><text x="18" y="32" font-family="JetBrains Mono,monospace" font-size="9" fill="#64748b" letter-spacing="3">PUBLIC REPOSITORIES</text><text x="18" y="74" font-family="Inter,system-ui,sans-serif" font-size="34" font-weight="700" fill="#e2e8f0">40</text><text x="18" y="94" font-family="JetBrains Mono,monospace" font-size="10" fill="#67e8f9">★ 61 stars</text><rect x="18" y="112" width="210" height="3" rx="1.5" fill="#67e8f9" opacity=".8"/></g><g transform="translate(60,296)"><rect width="1080" height="84" rx="12" fill="url(#ag-card)" stroke="#1f2540" stroke-width=".7"/><text x="18" y="22" font-family="JetBrains Mono,monospace" font-size="9" fill="#64748b" letter-spacing="3">CONTRIBUTION VELOCITY · 13 WEEKS</text><polyline points="18.0,64.3 105.0,59.3 192.0,56.8 279.0,53.4 366.0,56.2 453.0,52.5 540.0,46.9 627.0,57.8 714.0,54.3 801.0,41.6 888.0,51.9 975.0,18.0 1062.0,44.7 1062,76 18,76" fill="url(#ag-violet)"/><polyline points="18.0,64.3 105.0,59.3 192.0,56.8 279.0,53.4 366.0,56.2 453.0,52.5 540.0,46.9 627.0,57.8 714.0,54.3 801.0,41.6 888.0,51.9 975.0,18.0 1062.0,44.7" fill="none" stroke="#a78bfa" stroke-width="1.6"/><circle cx="1062" cy="44.7" r="4" fill="#fef3c7"/><text x="1062" y="74" text-anchor="end" font-family="JetBrains Mono,monospace" font-size="9" fill="#a78bfa">latest · 75</text></g><text x="60" y="404" font-family="JetBrains Mono,monospace" font-size="10" letter-spacing="3" fill="#64748b">HITDRAMA · GITHUB ANALYTICS · UPDATED BY ACTIONS</text></svg>